<<<<<<< HEAD
<mxfile host="app.diagrams.net" agent="Mozilla/5.0 (Windows NT 10.0; Win64; x64) AppleWebKit/537.36 (KHTML, like Gecko) Chrome/129.0.0.0 Safari/537.36" version="24.7.17">
  <diagram name="1 oldal" id="Q2y-Xxm-M94HrkDba26D">
    <mxGraphModel dx="1434" dy="780" grid="1" gridSize="10" guides="1" tooltips="1" connect="1" arrows="1" fold="1" page="1" pageScale="1" pageWidth="827" pageHeight="1169" math="0" shadow="0">
      <root>
        <mxCell id="0" />
        <mxCell id="1" parent="0" />
        <mxCell id="85bv42NYLCtdALQzRA63-1" value="&lt;div style=&quot;font-size: 20px;&quot; align=&quot;left&quot;&gt;&lt;font style=&quot;font-size: 20px;&quot;&gt;Id&lt;br&gt;&lt;/font&gt;&lt;/div&gt;&lt;div style=&quot;font-size: 20px;&quot; align=&quot;left&quot;&gt;&lt;font style=&quot;font-size: 20px;&quot;&gt;Date&lt;/font&gt;&lt;/div&gt;&lt;div style=&quot;font-size: 20px;&quot; align=&quot;left&quot;&gt;&lt;font style=&quot;font-size: 20px;&quot;&gt;Name&lt;/font&gt;&lt;/div&gt;&lt;div style=&quot;font-size: 20px;&quot; align=&quot;left&quot;&gt;&lt;font style=&quot;font-size: 20px;&quot;&gt;LocationId&lt;br&gt;&lt;/font&gt;&lt;/div&gt;&lt;font style=&quot;font-size: 20px;&quot;&gt;&lt;/font&gt;&lt;div style=&quot;font-size: 20px;&quot; align=&quot;left&quot;&gt;&lt;font style=&quot;font-size: 20px;&quot;&gt;TeamId&lt;/font&gt;&lt;/div&gt;&lt;div style=&quot;font-size: 20px;&quot; align=&quot;left&quot;&gt;&lt;font style=&quot;font-size: 20px;&quot;&gt;JudgeId&lt;/font&gt;&lt;/div&gt;" style="rounded=0;whiteSpace=wrap;html=1;align=left;" parent="1" vertex="1">
          <mxGeometry x="250" y="90" width="120" height="150" as="geometry" />
        </mxCell>
        <mxCell id="85bv42NYLCtdALQzRA63-2" value="&lt;font style=&quot;font-size: 20px;&quot;&gt;&lt;b&gt;Competition&lt;br&gt;&lt;/b&gt;&lt;/font&gt;" style="rounded=0;whiteSpace=wrap;html=1;" parent="1" vertex="1">
          <mxGeometry x="250" y="50" width="120" height="40" as="geometry" />
        </mxCell>
        <mxCell id="85bv42NYLCtdALQzRA63-3" value="&lt;div style=&quot;font-size: 20px;&quot; align=&quot;left&quot;&gt;&lt;font style=&quot;font-size: 20px;&quot;&gt;PostalCode(Id)&lt;/font&gt;&lt;/div&gt;&lt;div style=&quot;font-size: 20px;&quot; align=&quot;left&quot;&gt;&lt;font style=&quot;font-size: 20px;&quot;&gt;Name&lt;/font&gt;&lt;/div&gt;&lt;div style=&quot;font-size: 20px;&quot; align=&quot;left&quot;&gt;&lt;font style=&quot;font-size: 20px;&quot;&gt;StreetName&lt;/font&gt;&lt;/div&gt;&lt;div style=&quot;font-size: 20px;&quot; align=&quot;left&quot;&gt;&lt;font style=&quot;font-size: 20px;&quot;&gt;HouseNumber&lt;br&gt;&lt;/font&gt;&lt;/div&gt;" style="rounded=0;whiteSpace=wrap;html=1;align=left;" parent="1" vertex="1">
          <mxGeometry x="470" y="110" width="150" height="110" as="geometry" />
        </mxCell>
        <mxCell id="85bv42NYLCtdALQzRA63-4" value="&lt;b&gt;&lt;font style=&quot;font-size: 20px;&quot;&gt;Location&lt;/font&gt;&lt;/b&gt;" style="rounded=0;whiteSpace=wrap;html=1;" parent="1" vertex="1">
          <mxGeometry x="470" y="70" width="150" height="40" as="geometry" />
        </mxCell>
        <mxCell id="85bv42NYLCtdALQzRA63-5" value="" style="endArrow=none;html=1;rounded=0;entryX=-0.004;entryY=0.162;entryDx=0;entryDy=0;entryPerimeter=0;exitX=0.982;exitY=0.607;exitDx=0;exitDy=0;exitPerimeter=0;edgeStyle=orthogonalEdgeStyle;" parent="1" source="85bv42NYLCtdALQzRA63-1" target="85bv42NYLCtdALQzRA63-3" edge="1">
=======
<mxfile host="app.diagrams.net" agent="Mozilla/5.0 (Windows NT 10.0; Win64; x64; rv:131.0) Gecko/20100101 Firefox/131.0" version="24.7.17">
  <diagram name="1 oldal" id="Q2y-Xxm-M94HrkDba26D">
    <mxGraphModel dx="598" dy="660" grid="1" gridSize="10" guides="1" tooltips="1" connect="1" arrows="1" fold="1" page="1" pageScale="1" pageWidth="827" pageHeight="1169" math="0" shadow="0">
      <root>
        <mxCell id="0" />
        <mxCell id="1" parent="0" />
        <mxCell id="85bv42NYLCtdALQzRA63-1" value="&lt;div style=&quot;font-size: 20px;&quot; align=&quot;left&quot;&gt;&lt;font style=&quot;font-size: 20px;&quot;&gt;Id&lt;br&gt;&lt;/font&gt;&lt;/div&gt;&lt;div style=&quot;font-size: 20px;&quot; align=&quot;left&quot;&gt;&lt;font style=&quot;font-size: 20px;&quot;&gt;Date&lt;/font&gt;&lt;/div&gt;&lt;div style=&quot;font-size: 20px;&quot; align=&quot;left&quot;&gt;&lt;font style=&quot;font-size: 20px;&quot;&gt;Name&lt;/font&gt;&lt;/div&gt;&lt;div style=&quot;font-size: 20px;&quot; align=&quot;left&quot;&gt;&lt;font style=&quot;font-size: 20px;&quot;&gt;LocationId&lt;br&gt;&lt;/font&gt;&lt;/div&gt;&lt;font style=&quot;font-size: 20px;&quot;&gt;&lt;/font&gt;&lt;div style=&quot;font-size: 20px;&quot; align=&quot;left&quot;&gt;&lt;font style=&quot;font-size: 20px;&quot;&gt;TeamId&lt;/font&gt;&lt;/div&gt;&lt;div style=&quot;font-size: 20px;&quot; align=&quot;left&quot;&gt;&lt;font style=&quot;font-size: 20px;&quot;&gt;JudgeId&lt;/font&gt;&lt;/div&gt;" style="rounded=0;whiteSpace=wrap;html=1;align=left;" vertex="1" parent="1">
          <mxGeometry x="250" y="90" width="120" height="150" as="geometry" />
        </mxCell>
        <mxCell id="85bv42NYLCtdALQzRA63-2" value="&lt;font style=&quot;font-size: 20px;&quot;&gt;&lt;b&gt;Competition&lt;br&gt;&lt;/b&gt;&lt;/font&gt;" style="rounded=0;whiteSpace=wrap;html=1;" vertex="1" parent="1">
          <mxGeometry x="250" y="50" width="120" height="40" as="geometry" />
        </mxCell>
        <mxCell id="85bv42NYLCtdALQzRA63-3" value="&lt;div style=&quot;font-size: 20px;&quot; align=&quot;left&quot;&gt;&lt;font style=&quot;font-size: 20px;&quot;&gt;PostalCode(Id)&lt;/font&gt;&lt;/div&gt;&lt;div style=&quot;font-size: 20px;&quot; align=&quot;left&quot;&gt;&lt;font style=&quot;font-size: 20px;&quot;&gt;Name&lt;/font&gt;&lt;/div&gt;&lt;div style=&quot;font-size: 20px;&quot; align=&quot;left&quot;&gt;&lt;font style=&quot;font-size: 20px;&quot;&gt;StreetName&lt;/font&gt;&lt;/div&gt;&lt;div style=&quot;font-size: 20px;&quot; align=&quot;left&quot;&gt;&lt;font style=&quot;font-size: 20px;&quot;&gt;HouseNumber&lt;br&gt;&lt;/font&gt;&lt;/div&gt;" style="rounded=0;whiteSpace=wrap;html=1;align=left;" vertex="1" parent="1">
          <mxGeometry x="470" y="110" width="150" height="110" as="geometry" />
        </mxCell>
        <mxCell id="85bv42NYLCtdALQzRA63-4" value="&lt;b&gt;&lt;font style=&quot;font-size: 20px;&quot;&gt;Location&lt;/font&gt;&lt;/b&gt;" style="rounded=0;whiteSpace=wrap;html=1;" vertex="1" parent="1">
          <mxGeometry x="470" y="70" width="150" height="40" as="geometry" />
        </mxCell>
        <mxCell id="85bv42NYLCtdALQzRA63-5" value="" style="endArrow=none;html=1;rounded=0;entryX=-0.004;entryY=0.162;entryDx=0;entryDy=0;entryPerimeter=0;exitX=0.982;exitY=0.607;exitDx=0;exitDy=0;exitPerimeter=0;edgeStyle=orthogonalEdgeStyle;" edge="1" parent="1" source="85bv42NYLCtdALQzRA63-1" target="85bv42NYLCtdALQzRA63-3">
>>>>>>> 91ee72037e4a8b98f393634160d5ce81f31a58c6
          <mxGeometry width="50" height="50" relative="1" as="geometry">
            <mxPoint x="370" y="180" as="sourcePoint" />
            <mxPoint x="420" y="130" as="targetPoint" />
          </mxGeometry>
        </mxCell>
<<<<<<< HEAD
        <mxCell id="85bv42NYLCtdALQzRA63-7" value="&lt;font style=&quot;font-size: 20px;&quot;&gt;&lt;b&gt;Teams&lt;/b&gt;&lt;/font&gt;" style="rounded=0;whiteSpace=wrap;html=1;" parent="1" vertex="1">
          <mxGeometry x="60" y="90" width="120" height="40" as="geometry" />
        </mxCell>
        <mxCell id="85bv42NYLCtdALQzRA63-9" value="&lt;div style=&quot;font-size: 20px;&quot; align=&quot;left&quot;&gt;&lt;font style=&quot;font-size: 20px;&quot;&gt;Id&lt;/font&gt;&lt;/div&gt;&lt;div style=&quot;font-size: 20px;&quot; align=&quot;left&quot;&gt;&lt;font style=&quot;font-size: 20px;&quot;&gt;Name&lt;/font&gt;&lt;/div&gt;&lt;div style=&quot;font-size: 20px;&quot; align=&quot;left&quot;&gt;&lt;font style=&quot;font-size: 20px;&quot;&gt;Points&lt;/font&gt;&lt;/div&gt;&lt;div style=&quot;font-size: 20px;&quot; align=&quot;left&quot;&gt;&lt;font style=&quot;font-size: 20px;&quot;&gt;Members&lt;br&gt;&lt;/font&gt;&lt;/div&gt;" style="rounded=0;whiteSpace=wrap;html=1;align=left;" parent="1" vertex="1">
          <mxGeometry x="60" y="130" width="120" height="110" as="geometry" />
        </mxCell>
        <mxCell id="85bv42NYLCtdALQzRA63-10" value="" style="endArrow=none;html=1;rounded=0;entryX=0;entryY=0.75;entryDx=0;entryDy=0;edgeStyle=orthogonalEdgeStyle;exitX=1;exitY=0.25;exitDx=0;exitDy=0;" parent="1" source="85bv42NYLCtdALQzRA63-9" target="85bv42NYLCtdALQzRA63-1" edge="1">
=======
        <mxCell id="85bv42NYLCtdALQzRA63-7" value="&lt;font style=&quot;font-size: 20px;&quot;&gt;&lt;b&gt;Teams&lt;/b&gt;&lt;/font&gt;" style="rounded=0;whiteSpace=wrap;html=1;" vertex="1" parent="1">
          <mxGeometry x="60" y="90" width="120" height="40" as="geometry" />
        </mxCell>
        <mxCell id="85bv42NYLCtdALQzRA63-9" value="&lt;div style=&quot;font-size: 20px;&quot; align=&quot;left&quot;&gt;&lt;font style=&quot;font-size: 20px;&quot;&gt;Id&lt;/font&gt;&lt;/div&gt;&lt;div style=&quot;font-size: 20px;&quot; align=&quot;left&quot;&gt;&lt;font style=&quot;font-size: 20px;&quot;&gt;Name&lt;/font&gt;&lt;/div&gt;&lt;div style=&quot;font-size: 20px;&quot; align=&quot;left&quot;&gt;&lt;font style=&quot;font-size: 20px;&quot;&gt;Points&lt;/font&gt;&lt;/div&gt;&lt;div style=&quot;font-size: 20px;&quot; align=&quot;left&quot;&gt;&lt;font style=&quot;font-size: 20px;&quot;&gt;Members&lt;br&gt;&lt;/font&gt;&lt;/div&gt;" style="rounded=0;whiteSpace=wrap;html=1;align=left;" vertex="1" parent="1">
          <mxGeometry x="60" y="130" width="120" height="110" as="geometry" />
        </mxCell>
        <mxCell id="85bv42NYLCtdALQzRA63-10" value="" style="endArrow=none;html=1;rounded=0;entryX=0;entryY=0.75;entryDx=0;entryDy=0;edgeStyle=orthogonalEdgeStyle;exitX=1;exitY=0.25;exitDx=0;exitDy=0;" edge="1" parent="1" source="85bv42NYLCtdALQzRA63-9" target="85bv42NYLCtdALQzRA63-1">
>>>>>>> 91ee72037e4a8b98f393634160d5ce81f31a58c6
          <mxGeometry width="50" height="50" relative="1" as="geometry">
            <mxPoint x="180" y="201" as="sourcePoint" />
            <mxPoint x="230" y="150" as="targetPoint" />
          </mxGeometry>
        </mxCell>
<<<<<<< HEAD
        <mxCell id="85bv42NYLCtdALQzRA63-11" value="&lt;font style=&quot;font-size: 20px;&quot;&gt;&lt;b&gt;Judge&lt;/b&gt;&lt;/font&gt;" style="rounded=0;whiteSpace=wrap;html=1;" parent="1" vertex="1">
          <mxGeometry x="470" y="290" width="140" height="40" as="geometry" />
        </mxCell>
        <mxCell id="85bv42NYLCtdALQzRA63-12" value="&lt;div style=&quot;font-size: 20px;&quot; align=&quot;left&quot;&gt;&lt;font style=&quot;font-size: 20px;&quot;&gt;Id&lt;/font&gt;&lt;/div&gt;&lt;div style=&quot;font-size: 20px;&quot; align=&quot;left&quot;&gt;&lt;font style=&quot;font-size: 20px;&quot;&gt;Name&lt;/font&gt;&lt;/div&gt;&lt;div style=&quot;font-size: 20px;&quot; align=&quot;left&quot;&gt;&lt;font style=&quot;font-size: 20px;&quot;&gt;PhoneNumber&lt;/font&gt;&lt;/div&gt;&lt;div style=&quot;font-size: 20px;&quot; align=&quot;left&quot;&gt;&lt;font style=&quot;font-size: 20px;&quot;&gt;Email&lt;br&gt;&lt;/font&gt;&lt;/div&gt;" style="rounded=0;whiteSpace=wrap;html=1;align=left;" parent="1" vertex="1">
          <mxGeometry x="470" y="330" width="140" height="110" as="geometry" />
        </mxCell>
        <mxCell id="85bv42NYLCtdALQzRA63-13" value="" style="endArrow=none;html=1;rounded=0;edgeStyle=orthogonalEdgeStyle;entryX=-0.004;entryY=0.174;entryDx=0;entryDy=0;entryPerimeter=0;" parent="1" target="85bv42NYLCtdALQzRA63-12" edge="1">
=======
        <mxCell id="85bv42NYLCtdALQzRA63-11" value="&lt;font style=&quot;font-size: 20px;&quot;&gt;&lt;b&gt;Judge&lt;/b&gt;&lt;/font&gt;" style="rounded=0;whiteSpace=wrap;html=1;" vertex="1" parent="1">
          <mxGeometry x="470" y="290" width="140" height="40" as="geometry" />
        </mxCell>
        <mxCell id="85bv42NYLCtdALQzRA63-12" value="&lt;div style=&quot;font-size: 20px;&quot; align=&quot;left&quot;&gt;&lt;font style=&quot;font-size: 20px;&quot;&gt;Id&lt;/font&gt;&lt;/div&gt;&lt;div style=&quot;font-size: 20px;&quot; align=&quot;left&quot;&gt;&lt;font style=&quot;font-size: 20px;&quot;&gt;Name&lt;/font&gt;&lt;/div&gt;&lt;div style=&quot;font-size: 20px;&quot; align=&quot;left&quot;&gt;&lt;font style=&quot;font-size: 20px;&quot;&gt;PhoneNumber&lt;/font&gt;&lt;/div&gt;&lt;div style=&quot;font-size: 20px;&quot; align=&quot;left&quot;&gt;&lt;font style=&quot;font-size: 20px;&quot;&gt;Email&lt;br&gt;&lt;/font&gt;&lt;/div&gt;" style="rounded=0;whiteSpace=wrap;html=1;align=left;" vertex="1" parent="1">
          <mxGeometry x="470" y="330" width="140" height="110" as="geometry" />
        </mxCell>
        <mxCell id="85bv42NYLCtdALQzRA63-13" value="" style="endArrow=none;html=1;rounded=0;edgeStyle=orthogonalEdgeStyle;entryX=-0.004;entryY=0.174;entryDx=0;entryDy=0;entryPerimeter=0;" edge="1" parent="1" target="85bv42NYLCtdALQzRA63-12">
>>>>>>> 91ee72037e4a8b98f393634160d5ce81f31a58c6
          <mxGeometry width="50" height="50" relative="1" as="geometry">
            <mxPoint x="370" y="221" as="sourcePoint" />
            <mxPoint x="442.17" y="350" as="targetPoint" />
            <Array as="points">
              <mxPoint x="400" y="221" />
              <mxPoint x="400" y="350" />
              <mxPoint x="442" y="350" />
            </Array>
          </mxGeometry>
        </mxCell>
<<<<<<< HEAD
        <mxCell id="85bv42NYLCtdALQzRA63-14" value="&lt;div&gt;N&lt;/div&gt;" style="text;html=1;align=center;verticalAlign=middle;whiteSpace=wrap;rounded=0;" parent="1" vertex="1">
          <mxGeometry x="160" y="130" width="60" height="30" as="geometry" />
        </mxCell>
        <mxCell id="85bv42NYLCtdALQzRA63-15" value="&lt;div&gt;N&lt;/div&gt;" style="text;html=1;align=center;verticalAlign=middle;whiteSpace=wrap;rounded=0;" parent="1" vertex="1">
          <mxGeometry x="210" y="180" width="60" height="30" as="geometry" />
        </mxCell>
        <mxCell id="85bv42NYLCtdALQzRA63-16" value="&lt;div&gt;N&lt;/div&gt;" style="text;html=1;align=center;verticalAlign=middle;whiteSpace=wrap;rounded=0;" parent="1" vertex="1">
          <mxGeometry x="430" y="320" width="60" height="30" as="geometry" />
        </mxCell>
        <mxCell id="85bv42NYLCtdALQzRA63-17" value="&lt;div&gt;N&lt;/div&gt;" style="text;html=1;align=center;verticalAlign=middle;whiteSpace=wrap;rounded=0;" parent="1" vertex="1">
          <mxGeometry x="350" y="150" width="60" height="30" as="geometry" />
        </mxCell>
        <mxCell id="85bv42NYLCtdALQzRA63-18" value="&lt;div&gt;1&lt;/div&gt;" style="text;html=1;align=center;verticalAlign=middle;whiteSpace=wrap;rounded=0;" parent="1" vertex="1">
          <mxGeometry x="430" y="100" width="60" height="30" as="geometry" />
        </mxCell>
        <mxCell id="85bv42NYLCtdALQzRA63-19" value="&lt;div&gt;N&lt;/div&gt;" style="text;html=1;align=center;verticalAlign=middle;whiteSpace=wrap;rounded=0;" parent="1" vertex="1">
=======
        <mxCell id="85bv42NYLCtdALQzRA63-14" value="&lt;div&gt;N&lt;/div&gt;" style="text;html=1;align=center;verticalAlign=middle;whiteSpace=wrap;rounded=0;" vertex="1" parent="1">
          <mxGeometry x="160" y="130" width="60" height="30" as="geometry" />
        </mxCell>
        <mxCell id="85bv42NYLCtdALQzRA63-15" value="&lt;div&gt;N&lt;/div&gt;" style="text;html=1;align=center;verticalAlign=middle;whiteSpace=wrap;rounded=0;" vertex="1" parent="1">
          <mxGeometry x="210" y="180" width="60" height="30" as="geometry" />
        </mxCell>
        <mxCell id="85bv42NYLCtdALQzRA63-16" value="&lt;div&gt;N&lt;/div&gt;" style="text;html=1;align=center;verticalAlign=middle;whiteSpace=wrap;rounded=0;" vertex="1" parent="1">
          <mxGeometry x="430" y="320" width="60" height="30" as="geometry" />
        </mxCell>
        <mxCell id="85bv42NYLCtdALQzRA63-17" value="&lt;div&gt;N&lt;/div&gt;" style="text;html=1;align=center;verticalAlign=middle;whiteSpace=wrap;rounded=0;" vertex="1" parent="1">
          <mxGeometry x="350" y="150" width="60" height="30" as="geometry" />
        </mxCell>
        <mxCell id="85bv42NYLCtdALQzRA63-18" value="&lt;div&gt;1&lt;/div&gt;" style="text;html=1;align=center;verticalAlign=middle;whiteSpace=wrap;rounded=0;" vertex="1" parent="1">
          <mxGeometry x="430" y="100" width="60" height="30" as="geometry" />
        </mxCell>
        <mxCell id="85bv42NYLCtdALQzRA63-19" value="&lt;div&gt;N&lt;/div&gt;" style="text;html=1;align=center;verticalAlign=middle;whiteSpace=wrap;rounded=0;" vertex="1" parent="1">
>>>>>>> 91ee72037e4a8b98f393634160d5ce81f31a58c6
          <mxGeometry x="350" y="200" width="60" height="30" as="geometry" />
        </mxCell>
      </root>
    </mxGraphModel>
  </diagram>
</mxfile>
